<svg>
    <symbol id="wheelDown" xmlns="http://www.w3.org/2000/svg" viewBox="0 0 91 113.75" xml:space="preserve">
        <path d="m50.375 58.957-2.742 2.4v-7.066a1.7 1.7 0 1 0-3.4 0v7.066l-2.741-2.4a1.7 1.7 0 1 0-2.239 2.558l5.562 4.865c.083.072.181.109.272.162.018.01.031.023.049.033.043.023.078.064.123.084l.051.016c.202.08.412.127.623.127h.002c.212 0 .422-.047.623-.127l.053-.016c.045-.02.079-.061.122-.084.018-.01.032-.023.05-.033.091-.053.188-.09.271-.162l5.562-4.865a1.7 1.7 0 0 0-2.241-2.558z"/>
        <path d="M50.943 19.25h-10.02c-7.731 0-14.022 6.291-14.022 14.023v26.303c0 7.73 6.291 14.021 14.022 14.021h10.021c7.731 0 14.021-6.291 14.021-14.021V33.273c0-7.732-6.29-14.023-14.022-14.023zm10.621 40.326c0 5.857-4.764 10.621-10.621 10.621h-10.02c-5.856 0-10.622-4.764-10.622-10.621V33.273c0-5.857 4.766-10.623 10.622-10.623h10.021c5.857 0 10.621 4.766 10.621 10.623v26.303z"/>
        <path d="M45.934 42.166a5.663 5.663 0 0 0 5.656-5.656v-4.426a5.663 5.663 0 0 0-5.656-5.656 5.662 5.662 0 0 0-5.656 5.656v4.426a5.66 5.66 0 0 0 5.656 5.656zm-2.257-10.082c0-1.244 1.013-2.256 2.257-2.256s2.256 1.012 2.256 2.256v4.426c0 1.244-1.012 2.256-2.256 2.256s-2.257-1.012-2.257-2.256v-4.426zM44.232 47.395v.906a1.7 1.7 0 0 0 3.4 0v-.906a1.7 1.7 0 1 0-3.4 0z"/>
    </symbol>
    <symbol id="slash" viewBox="0 0 24 24" fill="none" xmlns="http://www.w3.org/2000/svg">
        <path d="M7 22L17 2" stroke-linecap="round" stroke-linejoin="round"/>
    </symbol>
    <symbol id="arrow" xmlns="http://www.w3.org/2000/svg" viewBox="0 0 100 125" xml:space="preserve">
        <switch>
            <g>
                <path d="M57.795 24.285h-14.86c-1.93 0-3.5 1.57-3.5 3.5v14.86c0 1.93 1.57 3.5 3.5 3.5h14.86c1.93 0 3.5-1.57 3.5-3.5v-14.86c0-1.93-1.57-3.5-3.5-3.5zm-6.282 12.396h-2.295c-.55 0-.81-.408-.577-.906l1.3-2.785c.233-.499.614-.499.847 0l1.301 2.786c.233.497-.027.905-.576.905zM57.795 48.453h-14.86c-1.93 0-3.5 1.57-3.5 3.5v14.859c0 1.93 1.57 3.5 3.5 3.5h14.86c1.93 0 3.5-1.57 3.5-3.5V51.953c0-1.93-1.57-3.5-3.5-3.5zm-5.705 10.37-1.301 2.785c-.233.498-.614.498-.847 0l-1.301-2.785c-.233-.498.027-.906.577-.906h2.295c.549 0 .809.408.577.906zM33.628 48.14h-14.86c-1.93 0-3.5 1.57-3.5 3.5V66.5c0 1.93 1.57 3.5 3.5 3.5h14.86c1.93 0 3.5-1.57 3.5-3.5V51.641a3.504 3.504 0 0 0-3.5-3.501zm-5.783 12.078c0 .55-.408.81-.906.577l-2.785-1.302c-.499-.232-.499-.613 0-.846l2.785-1.302c.499-.232.906.027.906.577v2.296zM81.962 70h-14.86c-1.93 0-3.5-1.57-3.5-3.5V51.641c0-1.93 1.57-3.5 3.5-3.5h14.86c1.93 0 3.5 1.57 3.5 3.5V66.5c0 1.93-1.57 3.5-3.5 3.5zm-14.86-20.86a2.503 2.503 0 0 0-2.5 2.5V66.5c0 1.379 1.121 2.5 2.5 2.5h14.86c1.379 0 2.5-1.121 2.5-2.5V51.641c0-1.379-1.121-2.5-2.5-2.5h-14.86z"/>
                <path d="M72.885 57.922c0-.55.408-.81.906-.577l2.785 1.302c.498.232.498.613 0 .846l-2.785 1.302c-.498.232-.906-.027-.906-.577v-2.296z"/>
            </g>
        </switch>
    </symbol>
</svg>